<svg width="28" height="28" viewBox="0 0 28 28" fill="none" xmlns="http://www.w3.org/2000/svg">
<path d="M8.1665 17.5H19.8332V22.1667C19.8332 22.7855 19.5873 23.379 19.1498 23.8166C18.7122 24.2542 18.1187 24.5 17.4998 24.5H10.4998C9.881 24.5 9.28751 24.2542 8.84992 23.8166C8.41234 23.379 8.1665 22.7855 8.1665 22.1667V17.5Z" fill="#fff"/>
<path d="M14 10.5C14 8.64348 13.2625 6.86301 11.9497 5.55025C10.637 4.2375 8.85652 3.5 7 3.5H3.5V5.83333C3.5 7.68985 4.2375 9.47033 5.55025 10.7831C6.86301 12.0958 8.64348 12.8333 10.5 12.8333H14" fill="#fff"/>
<path d="M14 12.8333C14 10.9768 14.7375 9.19632 16.0503 7.88357C17.363 6.57081 19.1435 5.83331 21 5.83331H24.5V6.99998C24.5 8.8565 23.7625 10.637 22.4497 11.9497C21.137 13.2625 19.3565 14 17.5 14H14" fill="#fff"/>
<path d="M14 17.5V10.5" stroke="#fff" stroke-width="2.75" stroke-linecap="round" stroke-linejoin="round"/>
</svg>
