<svg width="60" height="60" viewBox="0 0 60 60" fill="none" xmlns="http://www.w3.org/2000/svg">
<path fill-rule="evenodd" clip-rule="evenodd" d="M4.99951 29.9995C4.99951 16.212 16.2145 4.99951 29.9995 4.99951C43.7845 4.99951 54.9995 16.212 54.9995 29.9995C54.9995 43.7845 43.7845 54.9995 29.9995 54.9995C22.182 54.9995 14.957 51.442 10.182 45.2445C9.56951 44.447 9.71951 43.3045 10.5145 42.6945C11.3095 42.0795 12.447 42.232 13.062 43.0245C17.1445 48.3245 23.317 51.3645 29.9995 51.3645C41.7795 51.3645 51.3645 41.782 51.3645 29.9995C51.3645 18.2195 41.7795 8.63451 29.9995 8.63451C18.2195 8.63451 8.63701 18.2195 8.63701 29.9995C8.63701 31.0945 8.71701 32.182 8.87951 33.247C9.02951 34.237 8.34951 35.1645 7.35701 35.317C6.35951 35.482 5.43701 34.7895 5.28701 33.797C5.09701 32.552 4.99951 31.2745 4.99951 29.9995ZM27.3348 19.593C27.3348 18.588 28.1498 17.773 29.1523 17.773C30.1548 17.773 30.9698 18.588 30.9698 19.593V30.708L39.5298 35.813C40.3923 36.328 40.6748 37.443 40.1598 38.3055C39.8223 38.873 39.2173 39.1905 38.5998 39.1905C38.2823 39.1905 37.9598 39.108 37.6698 38.9355L28.2198 33.3005C27.6723 32.9705 27.3348 32.378 27.3348 31.738V19.593Z" fill="#176C36"/>
</svg>
