<svg width="80" height="80" viewBox="0 0 80 80" fill="none" xmlns="http://www.w3.org/2000/svg">
<path d="M40 75C59.33 75 75 59.33 75 40C75 20.67 59.33 5 40 5C20.67 5 5 20.67 5 40C5 59.33 20.67 75 40 75Z" fill="#17823C"/>
<path d="M40 15C34.476 15 30 19.478 30 25C30 30.522 34.476 35 40 35C45.524 35 50 30.522 50 25C50 19.478 45.524 15 40 15Z" fill="white"/>
<path d="M40 40C22.5017 40.0105 22.5 51.0769 22.5 51.0769V55.5769C22.5 55.5769 25.7307 62.5 40 62.5C54.2693 62.5 57.5 55.5769 57.5 55.5769V51.0769C57.5 51.0769 57.5 39.9931 40.0035 40H40Z" fill="white"/>
</svg>
